<?xml version="1.0" encoding="utf-8"?>
<!-- Generator: Adobe Illustrator 19.0.0, SVG Export Plug-In . SVG Version: 6.00 Build 0)  -->
<svg version="1.1" id="Layer_1" xmlns="http://www.w3.org/2000/svg" xmlns:xlink="http://www.w3.org/1999/xlink" x="0px" y="0px"
	 viewBox="-179 180.3 864.7 864.7" style="enable-background:new -179 180.3 864.7 864.7;" xml:space="preserve">
<style type="text/css">
	.st0{font-family:'MyriadPro-Regular';}
	.st1{font-size:225.6282px;}
</style>
<path d="M283.5,549.6c0,13.9,0,27.4,0,41c-0.8,0-1.4,0.1-2,0.1c-33.8,0-67.6,0-101.3,0c-8.9,0-17.7-1-26.4-3.3
	c-0.8-0.2-1.8-0.3-2.6-0.1c-19.2,6-36.1,15.5-48.3,32c-10.4,14.1-16.1,30-17.7,47.5c-1.4,16.2,0.4,31.9,6.6,47
	c7.4,17.9,20.3,30.9,37.1,40.2c16.9,9.4,35.2,14.4,54.5,16c27.2,2.3,54.3,0.7,81.3-2.8c27.3-3.5,53.7-10.7,79.6-19.5
	c0.8-0.3,1.7-0.5,2.8-0.9c0.1,0.8,0.2,1.5,0.2,2.2c0,8.9,0,17.8,0,26.7c0,1.6-0.5,2.5-1.9,3.3c-22.8,14.3-47.6,23.9-73.3,31
	c-23,6.4-46.5,9.3-70.2,10.4c-17.5,0.8-35.1,0.6-52.6-1c-29.2-2.6-57.5-9.1-83.4-23.5C33.7,778,13.2,751.3,5.5,715.2
	c-4-18.4-4.9-37-1.2-55.6c5.1-25.2,18.6-45.3,38.7-61.1c18.9-14.8,40.7-23.5,63.9-28.8c0.7-0.2,1.4-0.3,2.1-0.5
	c1-2.6-0.2-3.6-2.5-4.4c-16.5-5.7-32.3-12.8-46.3-23.3C42,528,29,510.7,23.9,488.5c-5.6-24.5-3.8-48.4,9.1-70.5
	c8.6-14.7,20.7-26.2,34.9-35.4c20.4-13.2,43-20.9,66.6-25.8c32.8-6.7,66-8.2,99.3-6c33.2,2.2,66,6.9,98.1,15.8
	c0.5,0.2,1.1,0.3,1.5,0.5c0,31.2,0,62.3,0,93.7c-6.1,0-11.8-0.3-17.4,0.1c-4.2,0.3-6.4-1-8.3-5c-7.6-15.8-15.6-31.4-23.6-46.9
	c-0.7-1.3-2-2.6-3.3-3.3c-14.2-7.3-29.4-11.9-45.1-15c-13.2-2.6-26.5-4-39.9-3.3c-18.2,0.9-36,3.4-52.6,11.6
	c-17.9,8.8-30.8,22.3-37.3,41.3c-3.5,10.1-4.2,20.6-4,31.1c0.3,15.4,3.5,30.1,11.2,43.6c10.5,18.5,26.3,30.6,46.4,37.1
	c0.8,0.3,1.7,0.2,2.6,0.1c7.3-0.8,14.5-2.3,21.8-2.4c32.5-0.3,64.9-0.1,97.4-0.1C282,549.6,282.7,549.6,283.5,549.6z"/>
<text transform="matrix(1 0 0 1 387.502 860.8782)" class="st0 st1">3</text>
</svg>
